#!OML:ASF X:\für Bonn\!DataBase\2005_08_12_Daniel\c3d\Daniel.ASF
:FULLY-SPECIFIED
:DEGREES
47
root 2.56682 17.2661 9.12534 172.618 -194.7 545.151
lowerback 9.54574 0.330126 -4.78556
upperback 0.989688 -0.279194 -5.15969
thorax -4.33433 -0.0857926 -2.66036
lowerneck 2.76841 -3.02342 -4.58028
upperneck 10.0191 -4.33454 3.7299
head 2.94162 -2.21044 1.93186
rclavicle -7.20594e-015 3.18055e-015
rhumerus -19.5642 11.5781 -84.7299
rradius 71.181
rwrist -3.01038
rhand -21.9322 15.5863
rfingers 7.12502
rthumb 4.47419 -14.3465
lclavicle -7.20594e-015 3.18055e-015
lhumerus -40.0487 28.3247 71.5617
lradius 30.4048
lwrist -19.8326
lhand -8.8004 -5.32476
lfingers 7.12502
lthumb 17.1386 23.9394
rfemur -17.6 -9.0169 11.2568
rtibia 61.2273
rfoot -8.70309 4.41342
rtoes -10.5858
lfemur -6.66166 -9.92556 -31.2644
ltibia 38.5055
lfoot -19.9367 -5.25148
ltoes 0.947347
48
root 2.56882 17.2734 9.25741 172.665 -195.444 545.17
lowerback 9.48946 0.264409 -4.87574
upperback 1.00215 -0.369293 -5.16563
thorax -4.29026 -0.128835 -2.60339
lowerneck 2.96806 -3.22112 -4.53239
upperneck 9.99556 -4.60907 3.76657
head 2.91046 -2.34581 1.93227
rclavicle -2.62893e-014 3.81667e-014
rhumerus -18.3227 11.2163 -83.4846
rradius 71.8515
rwrist -3.26348
rhand -22.1206 15.3106
rfingers 7.12502
rthumb 4.29235 -14.6258
lclavicle -2.62893e-014 3.81667e-014
lhumerus -39.373 26.9614 72.6541
lradius 31.3009
lwrist -18.5153
lhand -8.78116 -5.21144
lfingers 7.12502
lthumb 17.1571 24.0511
rfemur -18.1384 -8.73263 11.2477
rtibia 59.7344
rfoot -9.0162 4.21067
rtoes -9.8582
lfemur -6.06109 -10.2131 -31.2969
ltibia 38.2903
lfoot -20.1732 -5.68999
ltoes 0.787003
49
root 2.56992 17.2796 9.38931 172.721 -196.225 545.186
lowerback 9.44714 0.201803 -4.99256
upperback 0.997684 -0.459583 -5.15314
thorax -4.27111 -0.171045 -2.51261
lowerneck 3.19176 -3.43712 -4.49296
upperneck 9.97605 -4.90714 3.78363
head 2.87716 -2.494 1.92793
rclavicle 7.01213e-014 3.02153e-014
rhumerus -17.0801 10.7862 -82.1967
rradius 72.4438
rwrist -3.45171
rhand -22.2606 15.0579
rfingers 7.12502
rthumb 4.15713 -14.8813
lclavicle 7.01213e-014 3.02153e-014
lhumerus -38.7929 25.6396 73.6662
lradius 32.2104
lwrist -17.2799
lhand -8.78876 -5.13644
lfingers 7.12502
lthumb 17.1498 24.1267
rfemur -18.5843 -8.38087 11.207
rtibia 58.1312
rfoot -9.15196 3.96889
rtoes -9.07745
lfemur -5.45256 -10.5284 -31.3137
ltibia 38.0235
lfoot -20.3673 -6.15574
ltoes 0.666907
50
root 2.57101 17.2856 9.52136 172.78 -197.017 545.206
lowerback 9.40375 0.137528 -5.1154
upperback 0.996729 -0.551865 -5.13191
thorax -4.2471 -0.214169 -2.40911
lowerneck 3.4055 -3.64307 -4.47833
upperneck 9.94766 -5.1928 3.82374
head 2.84392 -2.63629 1.93634
rclavicle 2.60408e-014 -3.81667e-014
rhumerus -15.8292 10.3378 -80.8838
rradius 72.9589
rwrist -3.59407
rhand -22.4222 14.7986
rfingers 7.12502
rthumb 4.00106 -15.1436
lclavicle 2.60408e-014 -3.81667e-014
lhumerus -38.2608 24.3228 74.6234
lradius 33.1198
lwrist -16.0559
lhand -8.8428 -5.13353
lfingers 7.12502
lthumb 17.0978 24.1341
rfemur -18.9421 -7.92692 11.123
rtibia 56.4484
rfoot -9.23926 3.73439
rtoes -8.81779
lfemur -4.82066 -10.8711 -31.3297
ltibia 37.7082
lfoot -20.5256 -6.60981
ltoes 0.651955
51
root 2.57214 17.2959 9.65414 172.834 -197.822 545.239
lowerback 9.37373 0.0827297 -5.24684
upperback 0.995552 -0.633169 -5.10294
thorax -4.23012 -0.251573 -2.29436
lowerneck 3.60941 -3.86241 -4.52729
upperneck 9.93283 -5.49694 3.86608
head 2.82079 -2.78996 1.95674
rclavicle -3.00662e-014 9.70069e-014
rhumerus -14.548 9.80415 -79.5531
rradius 73.3345
rwrist -3.64948
rhand -22.5954 14.6381
rfingers 7.12502
rthumb 3.83381 -15.3072
lclavicle -3.00662e-014 9.70069e-014
lhumerus -37.7741 23.1201 75.4948
lradius 33.9683
lwrist -15.0508
lhand -8.98319 -5.24257
lfingers 7.12502
lthumb 16.9626 24.0367
rfemur -19.2476 -7.38167 10.966
rtibia 54.7097
rfoot -9.25888 3.44553
rtoes -8.42299
lfemur -4.13541 -11.222 -31.3549
ltibia 37.3175
lfoot -20.6654 -7.06864
ltoes 0.600758
52
root 2.57265 17.3081 9.78686 172.901 -198.651 545.275
lowerback 9.33828 0.0236282 -5.35171
upperback 0.987924 -0.718049 -5.09117
thorax -4.21697 -0.291231 -2.2123
lowerneck 3.81626 -4.07887 -4.59147
upperneck 9.93722 -5.80081 3.94445
head 2.80622 -2.94324 1.99228
rclavicle 1.05356e-014 -4.29375e-014
rhumerus -13.1772 9.17756 -78.2675
rradius 73.5185
rwrist -3.68736
rhand -22.7225 14.5704
rfingers 7.12502
rthumb 3.71112 -15.3771
lclavicle 1.05356e-014 -4.29375e-014
lhumerus -37.3446 21.9131 76.287
lradius 34.8172
lwrist -14.094
lhand -9.1642 -5.39611
lfingers 7.12502
lthumb 16.7884 23.8981
rfemur -19.4753 -6.788 10.7615
rtibia 52.957
rfoot -9.29398 3.12794
rtoes -8.27185
lfemur -3.4333 -11.5744 -31.3687
ltibia 36.8601
lfoot -20.7661 -7.55262
ltoes 0.555241
53
root 2.57343 17.3232 9.92073 172.969 -199.487 545.327
lowerback 9.2862 -0.0294106 -5.43878
upperback 0.991515 -0.790615 -5.08153
thorax -4.18268 -0.325505 -2.14397
lowerneck 4.04938 -4.29112 -4.75664
upperneck 9.90204 -6.1053 4.0819
head 2.78099 -3.09948 2.06664
rclavicle 3.97569e-015 4.13472e-014
rhumerus -11.7379 8.48633 -76.9757
rradius 73.5494
rwrist -3.70207
rhand -22.8183 14.5811
rfingers 7.12502
rthumb 3.61855 -15.368
lclavicle 3.97569e-015 4.13472e-014
lhumerus -36.8924 20.7468 77.0376
lradius 35.586
lwrist -13.2432
lhand -9.3482 -5.65627
lfingers 7.12502
lthumb 16.6112 23.6528
rfemur -19.6461 -6.09627 10.4912
rtibia 51.1798
rfoot -9.24549 2.73058
rtoes -8.40287
lfemur -2.68298 -11.9392 -31.3946
ltibia 36.3275
lfoot -20.8261 -8.0192
ltoes 0.508539
54
root 2.57412 17.3381 10.0548 173.053 -200.345 545.371
lowerback 9.21882 -0.093836 -5.48699
upperback 0.983216 -0.874224 -5.08129
thorax -4.15275 -0.365885 -2.10606
lowerneck 4.30344 -4.4968 -4.9723
upperneck 9.87586 -6.40532 4.24293
head 2.75932 -3.25516 2.15901
rclavicle 2.90226e-014 -7.4743e-014
rhumerus -10.335 7.8079 -75.6927
rradius 73.5227
rwrist -3.7939
rhand -22.8894 14.6285
rfingers 7.12502
rthumb 3.54988 -15.3216
lclavicle 2.90226e-014 -7.4743e-014
lhumerus -36.409 19.7071 77.6988
lradius 36.1866
lwrist -12.5893
lhand -9.57256 -5.98852
lfingers 7.12502
lthumb 16.3952 23.3386
rfemur -19.7647 -5.30964 10.1844
rtibia 49.375
rfoot -9.11743 2.23408
rtoes -8.6756
lfemur -1.94169 -12.3173 -31.3977
ltibia 35.7587
lfoot -20.8544 -8.51757
ltoes 0.487169
